<svg width="295" height="82" viewBox="0 0 295 82" fill="none" xmlns="http://www.w3.org/2000/svg">
<path fill-rule="evenodd" clip-rule="evenodd" d="M236.011 24.6415H227.222V19.2623H215.854V24.6415H195.144V34.3503H236.658C236.821 35.185 236.997 36.0239 237.174 36.8684C237.276 37.3513 237.377 37.836 237.477 38.3227C233.272 36.8919 227.768 36.2527 221.538 36.2527C207.426 36.2527 197.038 39.5327 197.038 47.8639C197.038 55.0143 204.748 58.4911 215.92 59.2783V64.1983H193.314V74.0383H222.942C223.027 74.5155 223.225 74.9658 223.518 75.3428C223.406 75.1438 223.309 74.9372 223.227 74.7249C222.553 72.9827 222.871 70.8223 224.48 69.2995C226.106 67.7613 227.892 66.0089 229.61 64.1983H227.157V59.2783C229.923 59.0834 232.477 58.7237 234.754 58.1841C235.793 56.7717 236.585 55.4837 237.034 54.3998C239.611 48.1768 238.442 42.5832 237.199 36.6286C237.103 36.1687 237.007 35.7067 236.911 35.2421C236.21 31.8199 235.592 28.2711 236.011 24.6415ZM249.639 74.0383H249.762V73.9976C249.721 74.0112 249.68 74.0248 249.639 74.0383ZM285.741 16.7103C287.885 20.1131 289.276 24.1267 289.789 28.6375C290.042 30.8661 290.164 32.9301 290.169 34.836C290.082 44.2236 287 48.9214 283.863 50.6505C280.125 52.7118 275.201 51.1597 272.589 46.5854C272.527 46.4777 272.487 46.3909 272.46 46.3239C272.643 46.1601 272.829 46.0265 273.019 45.9188C273.56 45.7128 274.236 45.5849 274.836 45.5178C275.252 45.5166 275.561 45.5088 275.773 45.4971C275.869 45.4919 276.012 45.4827 276.148 45.4612C276.185 45.4553 276.258 45.443 276.346 45.4203C276.389 45.409 276.463 45.3884 276.551 45.3547C276.618 45.3292 276.805 45.2555 277.008 45.104C277.149 44.9994 277.763 44.5153 277.776 43.6017C277.789 42.6506 277.146 42.1446 276.978 42.0248C276.758 41.8674 276.556 41.7963 276.487 41.7727C276.393 41.7409 276.316 41.7226 276.271 41.7129C276.056 41.6666 275.841 41.6636 275.794 41.6629L275.787 41.6628C275.686 41.6609 275.571 41.662 275.45 41.6656C275.227 41.6723 274.949 41.6885 274.636 41.7186C273.458 41.7299 272.387 41.9788 271.424 42.4673C270.657 42.7916 269.684 43.3582 269.103 44.3634C268.059 45.6225 267.322 47.2097 266.7 48.8163C266.32 49.8003 265.935 50.9262 265.547 52.0635L265.546 52.0652L265.546 52.0666C265.288 52.8223 265.028 53.583 264.766 54.3104C263.391 58.1367 261.642 62.028 258.308 65.1338C255.017 68.1994 249.792 70.2955 244.023 71.6798C238.306 73.0515 232.308 73.667 227.697 73.9363C227.202 73.9652 226.899 73.721 226.755 73.3495C226.602 72.9549 226.659 72.4589 227.076 72.065C229.516 69.7564 232.354 66.933 234.825 64.1094C237.256 61.3315 239.481 58.3884 240.529 55.8583C243.574 48.5026 242.159 41.7941 240.928 35.9604C240.822 35.4591 240.718 34.9643 240.618 34.4761C239.334 28.2126 238.687 22.9376 243.024 17.4054C246.562 12.8917 250.421 9.60636 254.696 7.69644C258.948 5.79676 263.723 5.20637 269.205 6.25339C276.453 7.63782 282.153 11.299 285.741 16.7103ZM275.745 45.4631C275.746 45.4634 275.735 45.4632 275.715 45.4619C275.735 45.4623 275.744 45.4629 275.745 45.4631ZM208.341 47.8639C208.341 49.8319 213.894 50.5535 221.538 50.5535C229.182 50.5535 234.736 49.8319 234.736 47.8639C234.736 45.8959 229.182 45.1743 221.538 45.1743C213.894 45.1743 208.341 45.8959 208.341 47.8639ZM58.7446 19.9839V61.4431H47.7033V19.9839H58.7446ZM22.9419 20.0495C33.8526 20.0495 41.3006 26.7407 41.3006 36.8431C41.3006 47.0111 33.8526 53.6367 22.9419 53.6367C12.0313 53.6367 4.58325 47.0111 4.58325 36.8431C4.58325 26.7407 12.0313 20.0495 22.9419 20.0495ZM22.9419 29.2991C18.6953 29.2991 15.5593 31.9887 15.5593 36.8431C15.5593 41.6975 18.6953 44.3871 22.9419 44.3871C27.1886 44.3871 30.3246 41.6975 30.3246 36.8431C30.3246 31.9887 27.1886 29.2991 22.9419 29.2991ZM20.7206 56.3919V66.0351H59.5286V76.0063H9.48325V56.3919H20.7206ZM119.891 42.0255L94.3456 36.5151C88.2043 39.8607 79.4496 41.6319 70.1723 41.7631V33.1695C77.947 33.0383 86.3096 31.3327 89.7723 28.4463H70.8256V19.9839H120.871V28.4463H102.12C102.02 28.7976 101.882 29.1105 101.735 29.4438C101.69 29.5461 101.644 29.6504 101.598 29.7583L122.243 33.7599L119.891 42.0255ZM67.6243 43.9935H124.072V52.5215H67.6243V43.9935ZM95.8483 54.7519C110.875 54.7519 121.328 57.6383 121.328 65.7071C121.328 73.7759 110.875 76.6623 95.8483 76.6623C80.8216 76.6623 70.3683 73.7759 70.3683 65.7071C70.3683 57.6383 80.8216 54.7519 95.8483 54.7519ZM95.8483 68.3967C103.95 68.3967 109.568 67.7407 109.568 65.7071C109.568 63.7391 103.95 63.0175 95.8483 63.0175C87.747 63.0175 82.1283 63.7391 82.1283 65.7071C82.1283 67.7407 87.747 68.3967 95.8483 68.3967ZM166.076 53.3743V41.8943H173.655V61.4431H184.696V19.9839H173.655V31.4639H166.076V20.6399H155.296V27.7247H142.817V20.6399H132.037V53.3743H166.076ZM155.296 44.1247H142.817V36.7775H155.296V44.1247ZM185.48 66.0351H146.019V56.6543H134.781V76.0063H185.48V66.0351Z" fill="#5E7EF3"/>
</svg>
